/* XPM */
static char * copy_xpm[] = {
"24 25 4 1",
" 	c None",
".	c #000000",
"+	c #FFFFFF",
"@	c #E1E896",
"                        ",
"                        ",
"                        ",
"                        ",
"                        ",
"       ..............   ",
"       .++++++++++++.   ",
"       .+++.++++++++.   ",
"       .++.@.+++++++.   ",
"       .+.@@@.++++++.   ",
"       ..............   ",
"       .++++++.@@@.+.   ",
" ...............@.++.   ",
" .++++++++++++.+.+++.   ",
" .+++.++++++++.+++++.   ",
" .++.@.+++++++.......   ",
" .+.@@@.++++++.         ",
" ..............         ",
" .++++++.@@@.+.         ",
" .+++++++.@.++.         ",
" .++++++++.+++.         ",
" .++++++++++++.         ",
" ..............         ",
"                        ",
"                        "};
