/* XPM */
static char * crop_xpm[] = {
"24 25 5 1",
" 	c None",
".	c #000000",
"+	c #FFFFFF",
"@	c #9C999C",
"#	c #E1E896",
"                        ",
"  .                     ",
" . .  ..                ",
"  . ..                  ",
" . .  ..                ",
"  .                     ",
"                        ",
"    ................    ",
"    .++++++++++++++.    ",
"   .+++++@++++++++.     ",
"    .+++@#@++++++++.    ",
"     .+@###@++++++++.   ",
"    .@@@@@@@@@@@@@@.    ",
"   .++++++++@###@+.     ",
"    .++++++++@#@+++.    ",
"     .++++++++@+++++.   ",
"    .++++++++++++++.    ",
"    ................    ",
"                        ",
"                     .  ",
"                ..  . . ",
"                  .. .  ",
"                ..  . . ",
"                     .  ",
"                        "};
