#define cursor_closedhand_mask_width 16
#define cursor_closedhand_mask_height 16
static unsigned char cursor_closedhand_mask_bits[] = {
   0x00, 0x00, 0x00, 0x00, 0x00, 0x00, 0xb0, 0x0d, 0xf8, 0x3f, 0xf8, 0x7f, 0xf0, 0x7f, 0xf8, 0x7f, 0xfc, 0x7f,
   0xfc, 0x3f, 0xf8, 0x3f, 0xf0, 0x1f, 0xe0, 0x1f, 0xe0, 0x1f, 0x00, 0x00, 0x00, 0x00 };
