/* XPM */
static char * cut_xpm[] = {
"21 17 3 1",
" 	c None",
".	c #000000",
"+	c #9C999C",
"                     ",
"                .    ",
"              ..     ",
"             ..      ",
"            ..       ",
"     +     ..        ",
"  ....    ..     ... ",
" .   ..  ..   ....   ",
" .   ...........     ",
"  ....   ....        ",
"     +  ..           ",
"       ...           ",
"      .  .           ",
"     .+  .           ",
"     .  .            ",
"     ...             ",
"                     "};
