/* XPM */
static char * done_xpm[] = {
"20 22 3 1",
" 	c None",
".	c #000000",
"+	c #14E600",
"                    ",
"                    ",
"                    ",
"              ..    ",
"             .++.   ",
"             .++.   ",
"            .++.    ",
"      ..    .++.    ",
"     .++.  .++.     ",
"     .++.. .++.     ",
"      .++..++.      ",
"      .+++.++.      ",
"       .++++.       ",
"        .+++.       ",
"        .++.        ",
"         .+.        ",
"          .         ",
"                    ",
"                    ",
"                    ",
"                    ",
"                    "};
