/* XPM */
static char * eye_xpm[] = {
"28 25 5 1",
" 	c None",
".	c #000000",
"+	c #9C999C",
"@	c #FFFFFF",
"#	c #7070E0",
"                            ",
"                            ",
"                            ",
"                            ",
"                            ",
"                            ",
"                            ",
"         ..........         ",
"      .....++++++.....      ",
"    ...+@@+######+@@+...    ",
"   ..+@@@+#####@##+@@@+..   ",
"  ..@@@@@+##+.#+@#+@@@@@..  ",
"  .+@@@@@+#+...###+@@@@@+.  ",
"   .@@@@@+#++..###+@@@@@.   ",
"    ..@@@+##++####+@@@..    ",
"     ...@@+######+@@...     ",
"       ....++++++....       ",
"          ........          ",
"                            ",
"                            ",
"                            ",
"                            ",
"                            ",
"                            ",
"                            "};
