/* XPM */
static char * hand_xpm[] = {
"16 16 19 1",
" 	c None",
".	c #000000",
"+	c #FFFFFF",
"@	c #313131",
"#	c #444444",
"$	c #767676",
"%	c #797979",
"&	c #585858",
"*	c #DADADA",
"=	c #131313",
"-	c #C0C0C0",
";	c #DCDCDC",
">	c #E3E3E3",
",	c #818181",
"'	c #C9C9C9",
")	c #ECECEC",
"!	c #141414",
"~	c #747474",
"{	c #939393",
"                ",
"                ",
"        .       ",
"      ..+...    ",
"     .+@+#+..   ",
"     .+$+%+&*.  ",
"    .=+-+-+-*.  ",
"   .;.++++++*.  ",
"  .>+,+'+'+'*.  ",
"  .++-+*+)')*.  ",
"  .++++++++)*.  ",
"  .)++++++))*.  ",
"  !~'*******{.  ",
"   ..........   ",
"                ",
"                "};
