#define hand_width 16
#define hand_height 16
#define hand_x_hot 3
#define hand_y_hot 2
static unsigned char hand_bits[] = {
   0x60, 0x00, 0x98, 0x06, 0x24, 0x09, 0x24, 0x31, 0x44, 0x52, 0x48, 0x52,
   0x48, 0x49, 0x4c, 0x49, 0x12, 0x20, 0x12, 0x30, 0x02, 0x20, 0x02, 0x20,
   0x02, 0x20, 0x04, 0x20, 0x0c, 0x10, 0x10, 0x08};
