/* XPM */
static char * headphones_xpm[] = {
"10 10 2 1",
" 	c None",
".	c #FFFFFF",
"          ",
"  ......  ",
" ..    .. ",
" .      . ",
" .      . ",
" . .  . . ",
"  ..  ..  ",
"  ..  ..  ",
"   .  .   ",
"          "};
