/* XPM */
static char * info_xpm[] = {
"20 20 4 1",
" 	c None",
".	c #FFFFFF",
"+	c #5757D1",
"@	c #9F9FCE",
"                    ",
"      ........      ",
"    ...++++++...    ",
"   ..++++++++++..   ",
"  ..+++++.@+++++..  ",
"  .+++++...@+++++.  ",
" ..+++++...@+++++.. ",
" .+++++++.@+++++++. ",
" .++++++++++++++++. ",
" .+++++@...@++++++. ",
" .++++++@..+++++++. ",
" .+++++++..+++++++. ",
" .+++++++..+++++++. ",
" ..+++++@..@+++++.. ",
"  .++++......++++.  ",
"  ..++++++++++++..  ",
"   ..++++++++++..   ",
"    ...++++++...    ",
"      ........      ",
"                    "};
