/* XPM */
static char * loop_xpm[] = {
"13 10 2 1",
" 	c None",
".	c #FFFFFF",
"             ",
"      .      ",
"  ......  .  ",
" .    .   .. ",
" .         . ",
" .         . ",
" ..   .    . ",
"  .  ......  ",
"      .      ",
"             "};
