/* XPM */
static char * mic_xpm[] = {
"14 10 2 1",
" 	c None",
".	c #FFFFFF",
"              ",
"          .   ",
"           .  ",
"   ..   .   . ",
"  ....   .  . ",
"  ....   .  . ",
"   ..   .   . ",
"   ..      .  ",
"   ..     .   ",
"              "};
