/* XPM */
static char * mouse_xpm[] = {
"20 20 4 1",
" 	c None",
".	c #000000",
"+	c #9C999C",
"@	c #FFFFFF",
"                    ",
"                    ",
"      ...           ",
"    ..+++..         ",
"   .++@@@++.        ",
"  .++@@+@@@+.       ",
"  .+@@@++++++.      ",
"  .@+@@++@@@@+.     ",
"  .+@++@@@@@@@+.    ",
"   .++@@@@@@@@@+.   ",
"    .++@@@@@@@@+.   ",
"     .++@@@@@@@@+.  ",
"     .+++@@@@@@@+.  ",
"      .++@@@@@@@@.  ",
"      .+++@@@@@@@.  ",
"       .++@@@@@@@.  ",
"        .++@@@@@.   ",
"         .++++@.    ",
"          .....     ",
"                    "};
