/* XPM */
static char * mute_xpm[] = {
"17 10 3 1",
" 	c None",
".	c #FFFFFF",
"+	c #FF0000",
"                 ",
"         .    .  ",
"     .  .+.  .+. ",
"    ..   .+..+.  ",
" .....    .++.   ",
" .....    .++.   ",
"    ..   .+..+.  ",
"     .  .+.  .+. ",
"         .    .  ",
"                 "};
