#define needle_mask_width 22
#define needle_mask_height 18
static unsigned char needle_mask_bits[] = {
   0xf0, 0x1f, 0x00, 0xf0, 0x1f, 0x00, 0xf0, 0x1f, 0x00, 0xf0, 0x1f, 0x00,
   0xf0, 0x1f, 0x00, 0xf0, 0x1f, 0x00, 0xe0, 0x0f, 0x00, 0xe0, 0x0f, 0x00,
   0xc0, 0x07, 0x00, 0xc0, 0x07, 0x00, 0x80, 0x03, 0x00, 0x80, 0x03, 0x00,
   0x80, 0x03, 0x00, 0x80, 0x03, 0x00, 0x80, 0x03, 0x00, 0x80, 0x03, 0x00,
   0x80, 0x03, 0x00, 0x80, 0x03, 0x00};
