#define needle_width 22
#define needle_height 18
#define needle_x_hot 8
#define needle_y_hot 16
static unsigned char needle_bits[] = {
   0x00, 0x00, 0x00, 0xe0, 0x0f, 0x00, 0xa0, 0x0b, 0x00, 0x20, 0x09, 0x00,
   0x20, 0x09, 0x00, 0x40, 0x05, 0x00, 0x40, 0x05, 0x00, 0x80, 0x03, 0x00,
   0x80, 0x03, 0x00, 0x00, 0x01, 0x00, 0x00, 0x01, 0x00, 0x00, 0x01, 0x00,
   0x00, 0x01, 0x00, 0x00, 0x01, 0x00, 0x00, 0x01, 0x00, 0x00, 0x01, 0x00,
   0x00, 0x01, 0x00, 0x00, 0x00, 0x00};
