/* XPM */
static char * noloop_xpm[] = {
"12 9 2 1",
" 	c None",
".	c #FFFFFF",
"            ",
"         .. ",
"         .. ",
"      .  .. ",
" ....... .. ",
"      .  .. ",
"         .. ",
"         .. ",
"            "};
