/* XPM */
static char * open_xpm[] = {
"20 18 8 1",
" 	c None",
".	c #000000",
"+	c #080808",
"@	c #A4956A",
"#	c #101010",
"$	c #FFFFF6",
"%	c #FFFFFF",
"&	c #D5CEAC",
"                    ",
"            ..      ",
"         +..@@.     ",
"  ..  .#.@@@@$$%... ",
" .&&..@@@@$$$$..&&. ",
" .&&@@@$$$$$..&&&&. ",
"  .&@$$$$$..&&&&&&. ",
"  .&@$$$..&&&&&&&&. ",
"   .@$$.&&&&&&&&&&. ",
"   .@@$.&&&&&&&&&&. ",
"    .@$.&&&&&&&&&&. ",
"    .@@.&&&&&&&&..  ",
"     .@.&&&&&&..    ",
"     .@.&&&&&.      ",
"      ..&&&..       ",
"      ..&..         ",
"       ..           ",
"                    "};
