/* XPM */
static char * pastexfade_xpm[] = {
"24 25 6 1",
" 	c None",
".	c #000000",
"+	c #9C999C",
"@	c #D5CEAC",
"#	c #FFFFFF",
"$	c #E1E896",
"                        ",
"                        ",
"       .......          ",
" .......+++++......     ",
" .@@@@@.+++++.@@@@.     ",
" .@.....+++++....@.     ",
" .@.###.......##.@.     ",
" .@.###.########.@.     ",
" .@.##.$.#######.@.     ",
" .@.#.$$$.######.@.     ",
" .@..............@.     ",
" .@.######.$$$.#.@.     ",
" .@.#####.............. ",
" .@.#####.############. ",
" .@.#####.##..#####..#. ",
" .@.......####.###.$$#. ",
" .@@@@@@@.#####.#.$$$#. ",
" .@@@@@@@.######.$$$$#. ",
" .@@@@@@@.#####.$.$$$#. ",
" .@@@@@@@.####.$$$.$$#. ",
" .@@@@@@@.##..$$$$$..#. ",
" .........############. ",
"         .............. ",
"                        ",
"                        "};
