/* XPM */
static char * ping_kanji_xpm[] = {
"32 32 3 1",
" 	c None",
".	c #FFFFFF",
"+	c #000000",
"                                ",
"                                ",
"                      ....      ",
"     ..................++..     ",
"     .++++++++++++++++++++.     ",
"     .++++++++++++++++++++.     ",
"     ..........++..........     ",
"       .+..   .++.   .+...      ",
"       ..+..  .++.   .+++.      ",
"        .++.. .++.  ..++..      ",
"        ..++. .++.  .++..       ",
"         .++. .++. ..++.        ",
"         .++. .++. .++..        ",
"         .... .++...+.. ....    ",
"   ............++..+.....++..   ",
"   .++++++++++++++++++++++++.   ",
"   ............++............   ",
"              .++.              ",
"              .++.              ",
"              .++.              ",
"              .++.              ",
"              .++.              ",
"              .++.              ",
"              .++.              ",
"              .++.              ",
"              .++.              ",
"              .++.              ",
"              .++.              ",
"              ....              ",
"                                ",
"                                ",
"                                "};
