/* XPM */
static char * playpsel_xpm[] = {
"21 20 2 1",
" 	c None",
".	c #FFFFFF",
"                     ",
"                     ",
"                     ",
"                     ",
"                     ",
"                     ",
" ..           ..  .. ",
" ....         ..  .. ",
" ......       ..  .. ",
" ........     ..  .. ",
" ........     ..  .. ",
" ......       ..  .. ",
" ....         ..  .. ",
" ..           ..  .. ",
"    ... ... .        ",
"   .    .   .        ",
"    ..  ..  .        ",
"      . .   .        ",
"   ...  ... ...      ",
"                     "};
