/* XPM */
static char * record_dialog_xpm[] = {
"24 10 3 1",
" 	c None",
".	c #FFFFFF",
"+	c #DE5129",
"   ......               ",
"  ..++++..              ",
" ..++++++..             ",
" .++++++++.             ",
" .++++++++.             ",
" .++++++++.             ",
" .++++++++.             ",
" ..++++++..  ..  ..  .. ",
"  ..++++..   ..  ..  .. ",
"   ......               "};
