/* XPM */
static char * record_stop_xpm[] = {
"10 10 3 1",
" 	c None",
".	c #DE5129",
"+	c #FFFFFF",
"          ",
" ........ ",
" .++++++. ",
" .++++++. ",
" .++++++. ",
" .++++++. ",
" .++++++. ",
" .++++++. ",
" ........ ",
"          "};
