/* XPM */
static char * recpausesel_xpm[] = {
"23 22 3 1",
" 	c None",
".	c #FFFFFF",
"+	c #DE5129",
"                       ",
"                       ",
"                       ",
"                       ",
"                       ",
"                       ",
"    ......             ",
"   ..++++..     ..  .. ",
"  ..++++++..    ..  .. ",
"  .++++++++.    ..  .. ",
"  .++++++++.    ..  .. ",
"  .++++++++.    ..  .. ",
"  .++++++++.    ..  .. ",
"  ..++++++..    ..  .. ",
"   ..++++..     ..  .. ",
"    ......             ",
"           ... ... .   ",
"          .    .   .   ",
"           ..  ..  .   ",
"             . .   .   ",
"          ...  ... ... ",
"                       "};
