/* XPM */
static char * redo_xpm[] = {
"17 20 3 1",
" 	c None",
".	c #000000",
"+	c #FFFFFF",
"                 ",
"         .       ",
"         ..      ",
"         .+.     ",
"      ....++.    ",
"     .+++++++.   ",
"    .+++++++++.  ",
"   .+++++++++++. ",
"   .++++++++++.  ",
"  .++++++++++.   ",
"  .++++...++.    ",
"  .+++.  .+.     ",
"  .++.   ..      ",
"  .++.   .       ",
"  .++.           ",
"   .+.           ",
"   .++.          ",
"    .++.         ",
"     ..          ",
"                 "};
