/* XPM */
static char * rew_xpm[] = {
"14 7 2 1",
" 	c None",
".	c #FFFFFF",
"              ",
"     ..    .. ",
"   ....  .... ",
" ............ ",
"   ....  .... ",
"     ..    .. ",
"              "};
