/* XPM */
static char * save_xpm[] = {
"20 22 6 1",
" 	c None",
".	c #000000",
"+	c #D5CEAC",
"@	c #FFFFFF",
"#	c #E1E896",
"$	c #9C999C",
"                    ",
"                    ",
"                    ",
" .................. ",
" .++++++++++++++++. ",
" .++@@@@@@@@@@@@++. ",
" .++@@@.@@@@@@@@++. ",
" .++@@.#.@@@@@@@++. ",
" .++@.###.@@@@@@++. ",
" .++............++. ",
" .++@@@@@@.###.@++. ",
" .++@@@@@@@.#.@@++. ",
" .++@@@@@@@@.@@@++. ",
" .++++++++++++++++. ",
" .++..........++++. ",
" .++.$$$$$$$$.++++. ",
" .++.$.++$$$$.++++. ",
" .++.$.++$$$$.++++. ",
" .++.$..+$$$$.++++. ",
"  .+.$$$$$$$$.++++. ",
"   ...............  ",
"                    "};
