/* XPM */
static char * saveas_xpm[] = {
"21 22 8 1",
" 	c None",
".	c #000000",
"+	c #E1E896",
"@	c #D5CEAC",
"#	c #FFFFFF",
"$	c #000400",
"%	c #9C999C",
"&	c #9C9D9C",
"                     ",
"                 ..  ",
"                .++. ",
"  ..............+++. ",
" .@@@@@@@@@@@@.+++.  ",
" .@@#########.+++..  ",
" .@@###.####.+++.@.  ",
" .@@##.+.##.+++.@@.  ",
" .@@#.+++..+++.#@@.  ",
" .@@......+++...@@.  ",
" .@@#####.++.###@@.  ",
" .@@####.+..####@@.  ",
" .@@####$.######@@.  ",
" .@@@@@@@@@@@@@@@@.  ",
" .@@...........@@@.  ",
" .@@.%%%%%%%%%.@@@.  ",
" .@@.%.@@%%%%%.@@@.  ",
" .@@.%.@@%%%%%.@@@.  ",
" .@@.%..@%%%&%.@@@.  ",
"  .@.%%%%%%%%%.@@@.  ",
"   ...............   ",
"                     "};
