/* XPM */
static char * scroll_xpm[] = {
"21 22 6 1",
" 	c None",
".	c #000000",
"+	c #D5CEAC",
"@	c #FFFFFF",
"#	c #9C999C",
"$	c #E1E896",
"                     ",
"   ...         ...   ",
"  .+++.       .+++.  ",
" .++.++.     .++.++. ",
" .+.++.       .++.+. ",
" .++.............++. ",
" .@+++++++++++++++@. ",
" .@@+++++++++++++@@. ",
" .@#@@@@@@@@@@@@@@@. ",
" .#$#@@@@@@@@#@@@@@. ",
" .$$$#@@@@@@#$#@@@@. ",
" .#$$$#@@@@@#$$#@@#. ",
" .@###############$. ",
" .@@@@@#$$$#@@@#$$$. ",
" .@@@@@@#$#@@@@@#$#. ",
" .@@@@@@@#@@@@@@@#@. ",
" .+@@@@@@@@@@@@@@@+. ",
" .++@@@@@@@@@@@@@++. ",
" .+++++++++++++++++. ",
"  .+++++++++++++++.  ",
"   ...............   ",
"                     "};
