/* XPM */
static char * scrub_xpm[] = {
"15 18 4 1",
" 	c None",
".	c #FFFFFF",
"+	c #000000",
"@	c #96E896",
"  ...........  ",
"  .+++++++++.  ",
"  .+.......+.  ",
"  .+.+.@.+.+.  ",
"  .+.++@++.+.  ",
"  .+.++@++.+.  ",
"  .++@+@+@++.  ",
"  ..+@@@@@+..  ",
"   .++@@@++.   ",
"   ..+@@@+..   ",
"    .++@++.    ",
"    ..+@+..    ",
"     .+@+.     ",
"     .+@+.     ",
"     .+.+.     ",
"     .+.+.     ",
"     .+++.     ",
"     .....     "};
