/* XPM */
static char * scrubby_system_xpm[] = {
"50 48 317 2",
"  	c None",
". 	c #7A7A7A",
"+ 	c #7B7B7B",
"@ 	c #7B7A7A",
"# 	c #757574",
"$ 	c #929290",
"% 	c #9F9E9D",
"& 	c #848482",
"* 	c #777776",
"= 	c #787878",
"- 	c #8B8A8A",
"; 	c #7F7E7C",
"> 	c #B0B0B0",
", 	c #737373",
"' 	c #9B9A99",
") 	c #696556",
"! 	c #575D58",
"~ 	c #595D59",
"{ 	c #645E50",
"] 	c #635C4E",
"^ 	c #535550",
"/ 	c #625C50",
"( 	c #68635A",
"_ 	c #40433F",
": 	c #363730",
"< 	c #4C4D4A",
"[ 	c #444444",
"} 	c #505050",
"| 	c #4A4A4A",
"1 	c #474746",
"2 	c #484847",
"3 	c #888786",
"4 	c #9C9B9B",
"5 	c #69685C",
"6 	c #454A42",
"7 	c #4A4B48",
"8 	c #494746",
"9 	c #494846",
"0 	c #464643",
"a 	c #434340",
"b 	c #383836",
"c 	c #373737",
"d 	c #3C3C3C",
"e 	c #636059",
"f 	c #919090",
"g 	c #747874",
"h 	c #636864",
"i 	c #373837",
"j 	c #3F3F3F",
"k 	c #333332",
"l 	c #30302F",
"m 	c #2F2F2E",
"n 	c #2E2E2D",
"o 	c #2B2B2A",
"p 	c #434343",
"q 	c #464645",
"r 	c #4D4C4A",
"s 	c #9A9999",
"t 	c #656464",
"u 	c #9B9A9A",
"v 	c #525853",
"w 	c #424242",
"x 	c #4B4B4B",
"y 	c #AAAAAA",
"z 	c #C4C4C4",
"A 	c #D5DAD5",
"B 	c #DBE0DB",
"C 	c #D4D5D4",
"D 	c #D8D8D8",
"E 	c #414141",
"F 	c #404140",
"G 	c #B3B2B2",
"H 	c #969595",
"I 	c #535953",
"J 	c #4A4B4A",
"K 	c #343434",
"L 	c #A8A8A8",
"M 	c #474747",
"N 	c #ABBFAB",
"O 	c #ACDAAC",
"P 	c #828482",
"Q 	c #909090",
"R 	c #757575",
"S 	c #9D9C9B",
"T 	c #8C8B8B",
"U 	c #717571",
"V 	c #535453",
"W 	c #9F9F9F",
"X 	c #3A3A3A",
"Y 	c #202820",
"Z 	c #649864",
"` 	c #111511",
" .	c #A2A2A2",
"..	c #7C7D7A",
"+.	c #7A7979",
"@.	c #90918F",
"#.	c #6C716C",
"$.	c #3F3F40",
"%.	c #7C7C7C",
"&.	c #616C61",
"*.	c #151F15",
"=.	c #5D915D",
"-.	c #2B432B",
";.	c #425D42",
">.	c #5B615B",
",.	c #777574",
"'.	c #848484",
").	c #3C3B3B",
"!.	c #8E8D8D",
"~.	c #64695F",
"{.	c #3E3E3F",
"].	c #446344",
"^.	c #669E66",
"/.	c #74B474",
"(.	c #70AD70",
"_.	c #7DC37D",
":.	c #263B26",
"<.	c #454545",
"[.	c #5F5E5D",
"}.	c #AFAEAE",
"|.	c #858484",
"1.	c #6D706A",
"2.	c #4A4B4C",
"3.	c #1B291B",
"4.	c #649B64",
"5.	c #91E091",
"6.	c #95E795",
"7.	c #67A067",
"8.	c #141E14",
"9.	c #444443",
"0.	c #595755",
"a.	c #94908C",
"b.	c #6B6A6A",
"c.	c #7E7F7D",
"d.	c #5E625E",
"e.	c #172317",
"f.	c #81C881",
"g.	c #94E694",
"h.	c #679F67",
"i.	c #484848",
"j.	c #A29F9C",
"k.	c #3B3B3B",
"l.	c #5A5F59",
"m.	c #333434",
"n.	c #2C442C",
"o.	c #6DAA6D",
"p.	c #2C432C",
"q.	c #807F78",
"r.	c #A9A8A8",
"s.	c #818080",
"t.	c #696965",
"u.	c #3C3C3B",
"v.	c #5C8F5C",
"w.	c #2E462E",
"x.	c #90867E",
"y.	c #8F8F8F",
"z.	c #646464",
"A.	c #7A7A79",
"B.	c #464A46",
"C.	c #497149",
"D.	c #4A724A",
"E.	c #4B4B4A",
"F.	c #6E6C69",
"G.	c #888888",
"H.	c #848483",
"I.	c #4B4D45",
"J.	c #333F33",
"K.	c #759875",
"L.	c #464646",
"M.	c #6B6969",
"N.	c #7A7A77",
"O.	c #5F615D",
"P.	c #3E3E3E",
"Q.	c #353535",
"R.	c #9C9D9C",
"S.	c #696868",
"T.	c #929191",
"U.	c #5E5E5E",
"V.	c #2B2E2A",
"W.	c #3D3D3D",
"X.	c #656362",
"Y.	c #959291",
"Z.	c #9E9D9D",
"`.	c #7F7F7E",
" +	c #31342C",
".+	c #545554",
"++	c #898888",
"@+	c #949393",
"#+	c #727272",
"$+	c #7A776B",
"%+	c #606060",
"&+	c #888787",
"*+	c #878686",
"=+	c #929292",
"-+	c #979696",
";+	c #A2A1A1",
">+	c #ADADAD",
",+	c #8A8A89",
"'+	c #828685",
")+	c #4F5050",
"!+	c #5D5D5D",
"~+	c #9B9B9B",
"{+	c #999999",
"]+	c #959595",
"^+	c #8B8B8B",
"/+	c #898989",
"(+	c #8A8A8A",
"_+	c #8D8D8D",
":+	c #B3B3B3",
"<+	c #C3C3C3",
"[+	c #A5A5A5",
"}+	c #7E7D7D",
"|+	c #807F7F",
"1+	c #828181",
"2+	c #8D8C8C",
"3+	c #949494",
"4+	c #979797",
"5+	c #868686",
"6+	c #838383",
"7+	c #858585",
"8+	c #919191",
"9+	c #989898",
"0+	c #C9C9C9",
"a+	c #D7D7D7",
"b+	c #5F5F5F",
"c+	c #8A8989",
"d+	c #939393",
"e+	c #828282",
"f+	c #7D7D7D",
"g+	c #7E7E7E",
"h+	c #808080",
"i+	c #9D9D9D",
"j+	c #A1A1A1",
"k+	c #B1B1B1",
"l+	c #B4B4B4",
"m+	c #BBBBBB",
"n+	c #C0C0C0",
"o+	c #D2D2D2",
"p+	c #BCBCBC",
"q+	c #6E6E6E",
"r+	c #777777",
"s+	c #767676",
"t+	c #797979",
"u+	c #7F7F7F",
"v+	c #818181",
"w+	c #8E8E8E",
"x+	c #A9A9A9",
"y+	c #AEAEAE",
"z+	c #AFAFAF",
"A+	c #B2B2B2",
"B+	c #B6B6B6",
"C+	c #B7B7B7",
"D+	c #C2C2C2",
"E+	c #8C8C8C",
"F+	c #363636",
"G+	c #6F6E6E",
"H+	c #9A9A9A",
"I+	c #B5B5B5",
"J+	c #B8B8B8",
"K+	c #656565",
"L+	c #0B0B0B",
"M+	c #2F2F2F",
"N+	c #565555",
"O+	c #767575",
"P+	c #9C9C9C",
"Q+	c #9E9E9E",
"R+	c #ACACAC",
"S+	c #747474",
"T+	c #000000",
"U+	c #0C0C0C",
"V+	c #2E2D2D",
"W+	c #5A5959",
"X+	c #757474",
"Y+	c #A0A0A0",
"Z+	c #A3A3A3",
"`+	c #A4A4A4",
" @	c #A6A6A6",
".@	c #5B5B5B",
"+@	c #080808",
"@@	c #2D2D2D",
"#@	c #5D5C5C",
"$@	c #717070",
"%@	c #A7A7A7",
"&@	c #ABABAB",
"*@	c #727171",
"=@	c #3E3D3D",
"-@	c #040303",
";@	c #313131",
">@	c #595858",
",@	c #555555",
"'@	c #2C2C2C",
")@	c #313030",
"!@	c #565656",
"~@	c #6C6B6B",
"{@	c #A3A2A2",
"]@	c #434242",
"^@	c #0D0D0D",
"/@	c #2B2B2B",
"(@	c #515050",
"_@	c #6E6D6D",
":@	c #838282",
"<@	c #A4A3A3",
"[@	c #797878",
"}@	c #605F5F",
"|@	c #393939",
"1@	c #292929",
"2@	c #8F8E8E",
"3@	c #706F6F",
"4@	c #555454",
"5@	c #242424",
"6@	c #070707",
"7@	c #2A2929",
"8@	c #5A5A5A",
"9@	c #737272",
"0@	c #747373",
"a@	c #424141",
"b@	c #333333",
"                                                                                                    ",
"                                                                                                    ",
"                                                                                                    ",
"                                                                                                    ",
"                                                                                                    ",
"                                                                                                    ",
"                                                                                                    ",
"        . + + @ + + @ @ # $ % & * = - ; >                                                           ",
"    , ' ) ! ~ { ] ^ / ( _ : < [ } | 1 2 3                                                           ",
"      4 5 6 [ [ [ 7 8 9 0 a b c d [ [ [ e                                                           ",
"      f g h i [ [ j c k l m n o l p [ q r s                                                         ",
"      t u v w [ [ [ x y z A B C D E [ [ F G                                                         ",
"      x H I J [ [ [ K L M N O P Q R [ [ E S                                                         ",
"        T U V [ [ [ [ W X Y Z ` }  .[ [ [ ..                                                        ",
"        +.@.#.$.[ [ [ %.&.*.=.-.;.>.[ [ [ ,.'.                                                      ",
"        ).!.~.{.[ [ [ [ ].^./.(._.:.[ [ <.[.}.                                                      ",
"          |.1.2.[ [ [ [ 3.4.5.6.7.8.[ [ 9.0.a.                                                      ",
"          b.c.d.[ [ [ [ [ e.f.g.h.[ [ [ [ i.j.                                                      ",
"          k.T l.m.[ [ [ [ [ n.o.p.[ [ [ [ [ q.r.                                                    ",
"            s.t.u.[ [ [ [ [ [ v.w.[ [ [ [ 1 x.y.                                                    ",
"            z.A.B.[ [ [ [ [ [ C.D.[ [ [ [ E.F.G.                                                    ",
"            | H.I.[ [ [ [ [ [ J.K.[ [ [ [ L.M.N.                                                    ",
"              + O.P.[ [ [ [ [ Q.R.[ [ [ [ [ S.T.                                                    ",
"              U.A.V.[ [ [ [ [ [ i.W.[ [ [ <.X.Y.Z.                                                  ",
"              j `. +[ [ [ p [ [ [ p [ [ k..+T ++@+                                                  ",
"                #+$+[ p j E <.L.x %+'.&+*+- =+-+;+>+> L                                             ",
"                U.,+'+)+!+z.&+*+|.++!.@+~+{+]+y.^+/+(+_+]+~+:+<+[+                                  ",
"                k.}+|+s.1+*+2+3+-+4+3+^+5+6+6+7+5+G.(+^+_+y.8+8+9+W y 0+a+                          ",
"                b+}+c+f 3+4+d+/+e+f+%.g+h+e+6+'.5+G.(+^+_+y.Q =+=+i+j+> k+l+m+n+o+p+                ",
"                q+]+4+3+G.r+s+r+t+. %.g+u+v+e+'.5+G.(+^+_+w+]+{+j+x+y+z+> A+:+l+B+C+p+D+p+E+        ",
"                F+G+y.H+4+E+g+= t+. %.f+u+v+e+'.5+G./+w+]+i+i+3+d+~+y z+> A+:+l+I+B+J+C+y+K+        ",
"                L+M+N+O+=+~+P+Q e+%.+ f+u+v+e+'.G.y.P+j+ .3+H+d+Q Q+R+z+> k+A+l+I+:+L 8+S+          ",
"                T+T+U+V+W+X+&+Y+Q+3+G.u+u+e+G.3+P+Z+`+[+ @ @ @j+L R+>+z+> k+A+:+P+v+.@              ",
"                    T+T++@@@#@$@E+j+Z+~+Q 4+Q+Y+j+ .`+[+ @%@L y &@R+>+z+A+`+@+*@=@                  ",
"                          T+-@;@>@#+G.4+ @j+W Y+j+ .`+[+ @%@L y &@y+ @4 + ,@'@                      ",
"                              T+L+)@!@~@e+s {@[+ . .Z+`+ @%@y  .Q+*+$@]@                            ",
"                                  T+^@/@(@_@:@-+`+%@`+<@ .4+2+[@}@|@                                ",
"                                        L+1@N+*@f+d+2@++@ 3@4@5@                                    ",
"                                            6@7@8@9@0@t a@                                          ",
"                                                  b@;@                                              ",
"                                                                                                    ",
"                                                                                                    ",
"                                                                                                    ",
"                                                                                                    ",
"                                                                                                    ",
"                                                                                                    ",
"                                                                                                    ",
"                                                                                                    "};
