/* XPM */
static char * select_xpm[] = {
"19 15 4 1",
" 	c None",
".	c #000000",
"+	c #FFFFFF",
"@	c #D5CEAC",
"                   ",
" ..++..++..++..+++ ",
" ..++..++..++..+++ ",
" ..@@@@@@@@@@@@@.. ",
" ++@@@@@@@@@@@@@.. ",
" ++@@@@@@@@@@@@@++ ",
" ..@@@@@@@@@@@@@++ ",
" ..@@@@@@@@@@@@@.. ",
" ++@@@@@@@@@@@@@.. ",
" ++@@@@@@@@@@@@@++ ",
" ..@@@@@@@@@@@@@++ ",
" ..@@@@@@@@@@@@@.. ",
" +++..++..++..++.. ",
" +++..++..++..++.. ",
"                   "};
