/* XPM */
static char * spraycan_xpm[] = {
"15 18 4 1",
" 	c None",
".	c #FFFFFF",
"+	c #000000",
"@	c #E1E896",
"          .... ",
"        ...++. ",
"   ......+.... ",
"  ..++++...++. ",
"  .++++..+.... ",
" ..++......++. ",
" .+++++++..... ",
" .+@@@@@+.     ",
" .+++@@@+.     ",
" .+@+@@@+.     ",
" .+++@@@+.     ",
" .+@+@@@+.     ",
" .+++@@@+.     ",
" .+++@@@+.     ",
" .+@@@@@+.     ",
" .+@@@@@+.     ",
" .+++++++.     ",
" .........     "};
