/* XPM */
static char * sweep_app_icon_xpm[] = {
"16 16 95 2",
"  	c None",
". 	c #FFFFFF",
"+ 	c #F2F2F2",
"@ 	c #EAEAEA",
"# 	c #EDEDED",
"$ 	c #FDFDFD",
"% 	c #747474",
"& 	c #323232",
"* 	c #404040",
"= 	c #3A3A3A",
"- 	c #434343",
"; 	c #E5E5E5",
"> 	c #606060",
", 	c #838383",
"' 	c #CFCFCF",
") 	c #CCCCCC",
"! 	c #E1E8E1",
"~ 	c #DBE6DB",
"{ 	c #DBDBDB",
"] 	c #C3C3C3",
"^ 	c #BABABA",
"/ 	c #393939",
"( 	c #E1E1E1",
"_ 	c #8F8F8F",
": 	c #858585",
"< 	c #555555",
"[ 	c #ABC8AB",
"} 	c #A3D9A3",
"| 	c #868886",
"1 	c #4A4A4A",
"2 	c #C0C0C0",
"3 	c #3B3B3B",
"4 	c #808080",
"5 	c #000000",
"6 	c #385738",
"7 	c #67A067",
"8 	c #030503",
"9 	c #BFBFBF",
"0 	c #484848",
"a 	c #657A65",
"b 	c #2A412A",
"c 	c #172417",
"d 	c #547254",
"e 	c #656765",
"f 	c #303030",
"g 	c #464646",
"h 	c #4B744B",
"i 	c #7DC27D",
"j 	c #73B273",
"k 	c #84CD84",
"l 	c #6EAA6E",
"m 	c #71AF71",
"n 	c #272D27",
"o 	c #A0A0A0",
"p 	c #F4F4F4",
"q 	c #767676",
"r 	c #1B271B",
"s 	c #5A8C5A",
"t 	c #96E896",
"u 	c #79BB79",
"v 	c #293D29",
"w 	c #3B3C3B",
"x 	c #E8E8E8",
"y 	c #E0E0E0",
"z 	c #656565",
"A 	c #3C5D3C",
"B 	c #8EDC8E",
"C 	c #92E292",
"D 	c #649C64",
"E 	c #343734",
"F 	c #C6C6C6",
"G 	c #F9F9F9",
"H 	c #909090",
"I 	c #1A1F1A",
"J 	c #446944",
"K 	c #6DA96D",
"L 	c #192219",
"M 	c #535353",
"N 	c #EEEEEE",
"O 	c #F3F3F3",
"P 	c #424442",
"Q 	c #E3E3E3",
"R 	c #484A48",
"S 	c #F1F1F1",
"T 	c #475A47",
"U 	c #82A582",
"V 	c #494A49",
"W 	c #AFAFAF",
"X 	c #242424",
"Y 	c #424242",
"Z 	c #474747",
"` 	c #DEDEDE",
" .	c #B5B5B5",
"..	c #C9C9C9",
"+.	c #FBFBFB",
"    . + @ @ @ @ @ @ @ @ # $     ",
"    . % & * * * * * * = - ;     ",
"    . > , ' ) ! ~ { ] ^ / (     ",
"    . > _ : < [ } | 1 2 3 (     ",
"    . > _ 4 5 6 7 8 3 9 3 (     ",
"    . > 0 a b 6 7 c d e f (     ",
"    . ] g h i j k l m n o p     ",
"      . q r s t t u v w x .     ",
"      . y z A B C D E F G       ",
"        . H I J K L M N         ",
"        . O , 6 7 P Q $         ",
"          . _ 6 7 R S           ",
"          . _ T U V S           ",
"          . _ > W 1 S           ",
"          . _ X Y Z S           ",
"          . `  . ...+.          "};
