/* XPM */
static char * upleft_xpm[] = {
"3 3 2 1",
" 	c None",
".	c #dedfde",
"...",
".  ",
".  "};
