/* XPM */
static char * upright_xpm[] = {
"3 3 2 1",
" 	c None",
".	c #dedfde",
"...",
"  .",
"  ."};
