/* XPM */
static char * white_ogg_xpm[] = {
"50 77 33 1",
" 	c None",
".	c #FFFFFF",
"+	c #F5F2EF",
"@	c #DFD7C8",
"#	c #D8C8BB",
"$	c #959286",
"%	c #B4BAA0",
"&	c #AAA7A0",
"*	c #EAA66C",
"=	c #D3955F",
"-	c #B78656",
";	c #9C6F46",
">	c #895E3F",
",	c #574D47",
"'	c #070606",
")	c #735031",
"!	c #443222",
"~	c #747654",
"{	c #CDF4D0",
"]	c #A6C97F",
"^	c #2EEF26",
"/	c #03F505",
"(	c #579329",
"_	c #03D205",
":	c #1EB70F",
"<	c #59F159",
"[	c #2DD32B",
"}	c #50D744",
"|	c #92EF9B",
"1	c #AFF4AE",
"2	c #55AF29",
"3	c #F56F80",
"4	c #F54D8C",
"..................................................",
"..................................................",
"..................................................",
"..................................................",
"..................................................",
"..................................................",
"..................................................",
"..................................................",
"..................................................",
"..................................................",
"..................+@..............................",
".................+#$$$$$..........................",
".................@@$$$$$#.........................",
"...................@%%%%@.........................",
"..................+#%%&&@.........................",
"..................+#%%&&+.........................",
"...................##%&*=#@&%.....................",
"...................@#%&&+@-;>>+...................",
"....................#%%&..=-;--+..................",
".....................+%&..+-;-**=.................",
"....................+......#-;;#=.................",
"..................,'''%.....+-)#..................",
".................!!)),'%.....*;>..................",
"................&';--;,'+....+=>-.................",
"................,,---;!'%.....*->#................",
"................';-);)'',.....#=;>................",
"...............@';)'!;'''.....+-->$...............",
"...............$';-!'-'''......=;>>@..............",
"...............~')---=,''+.....#-;>-..............",
"...............!'!*=--)''+.....#-;>>+.............",
"...............'''**-''''%....*-;;>>#.............",
"...............'''-*!''''~.+@=---;>)@.............",
"..............+''';*!!)'',---;-->));..............",
"..............@''''!'!!'';--->))));...............",
"..............&'''''''''!;-=-))))>+...............",
"..............~''!!!'''',;;=->)))@................",
"..............''-=*->!'!>;==->)>&.................",
"............+#;--==*;->;>-*=->);..................",
"...........@****=-===;;;;=*-->)+..................",
"..........{]****=;;---;>-==-;>)...................",
"..........@**]]**=;;--;);*=-;>)...................",
"..........***]****=;;;>>-*&-;>)...................",
"..........******=**=--;)&^//(>)...................",
"..........=*****--*==--(/////()...................",
"..........]]]***->=*=-$^////_:).......^/<.........",
".........<//_[**->-*==}////___(......<//_|........",
".........|///_[*->=**%////____^......//___........",
"....&..%+1////_2->=**^////_____.....|//___{.......",
"...@'#.!$1////__;;=*]/////_____{....///___^.......",
"...@'%.'~1////__~;=*^////______<....//____[.......",
"....,+.~#<////__(;=%////_______^...{//__[__.......",
"....{<...<///___:--}////__:_____...<//_}}__{....||",
"...{//1.{//___:_:--////___2:____{..///_||__1..1/}.",
"...^///|</_::::::=]////___-2____1..///_|{__<.1/}..",
"..^//////_:-=*=(2*^///___(;(____<..//__..__^./_...",
".1//////__$==*=---=]]]}[_(>(____}.1//__..[__//}...",
".//////__(-*===---;=**=*_~;-_____.|/__}..1____1...",
"|/////__2-****=--;;>=***:;>;:____{//__|...___[....",
"__//___2-=*****---;>-***2>>;2____^//__....{[[{....",
"_____:$-=***=-;;;;>>;***2-;-(_____//__............",
"|____;3==******-;;>>-***2;>;&[_____/_}............",
".{}2$43*********---;-***2&&&@|_______.............",
"..***43*****=**=--->-***......______[.............",
"..***43*****==*=--->-**#......{_____1.............",
"..@*=44********=--;>-=*#+.......}__|..............",
"...*3=33=-====-;;>>~-***+.........................",
"...@=*****====-;--->2=*=+.........................",
"...+********=**---;>_2*@..........................",
"....*********==---;~__............................",
"....#*******=*=-;;>2_}............................",
".....***=****=;>>;>(_.............................",
".....*****=--;;--->2..............................",
".....@********=--->+..............................",
"......==***=*==--;#...............................",
".......===**===;;@................................",
"........+%-==-;&..................................",
"..........+;;-@..................................."};
