/* XPM */
static char * xifish_xpm[] = {
"50 50 33 1",
" 	c None",
".	c #C4D4E0",
"+	c #92B1C7",
"@	c #4B6E9B",
"#	c #334E73",
"$	c #6F8B9A",
"%	c #4F5637",
"&	c #2B332C",
"*	c #0E1717",
"=	c #05090A",
"-	c #0C2B30",
";	c #7EA26C",
">	c #035253",
",	c #037170",
"'	c #04B0AD",
")	c #02CECC",
"!	c #029090",
"~	c #03FCF9",
"{	c #6F7123",
"]	c #8B9396",
"^	c #F5F6F5",
"/	c #A8B8C6",
"(	c #CECF04",
"_	c #F8F905",
":	c #B0B104",
"<	c #494A0D",
"[	c #8F9004",
"}	c #7E9014",
"|	c #4DFEAF",
"1	c #A6FE59",
"2	c #3E6E34",
"3	c #429A5C",
"4	c #62BE64",
"                                                  ",
"                        .+                        ",
"                       .+@+                       ",
"                      .++@@+                      ",
"                     .+++@@@+                     ",
"                    .++++@@@@+                    ",
"                   .+++++@@@@@+                   ",
"                  .++++++@@@@@@+                  ",
"                 .+++++++@@@@@@@+                 ",
"                .++++++++@@@@@@@@+                ",
"               .+++++++++@###@@@@@+               ",
"              .+++++++$%&*===*-#@@@+              ",
"             .++++++;#=*>,')',-==&@@+             ",
"            .++++++@**!~~~~~~~~),=*#@+            ",
"           .$&-&%$&=>)~~~~~~~~~~~'**#@+           ",
"          .#*{+]&==-,!!'~~~~~~~~~~)-=#@+          ",
"         .$*.^^^^%=&**==*,)~~~~~~~~)>=#@+         ",
"        .+&{^^//^.*(___({&*'~~~~~~~~~>=#@+        ",
"       .+;*+^.==^^&:_____(<*!~~~~~~~~~>=&&$+++    ",
"      .+]&=]^^%@^^*:___{___{='~~~~~~~!-==*---*%   ",
"     .+;*&<&^^^^^+*_([_[_:(_<*'~~~),-=,)~~~~~'=   ",
"    +$$-*(_&%.^^+*[_({_:_{(__%=-*==-,)~~~~~~~'*   ",
"   &====:__(<*&-*[_____<_(_((_}==>'~~~~~~~~~~,-   ",
" /*>')!={____(::(________<:}[_(:&=-!~~~~~~~~~--+  ",
" ]=)~~~'={___________________:<__:{'~~~~~~~~'=#@+ ",
".@=-)~~~'={_______((((((_<:{{__(*__|~~~~~',-==##@.",
" /#*=>'~~!={_____;=====&_(_(_:%_(__|~~~>====-###/ ",
"  /@#**'~~,=_____~))'-*(_{:[[_((<_1~~~~,!)'-=-#/  ",
"   /@@-='~)2____1~~~>=[__:(((:{_:_|~~~~~~~~~,=;   ",
"    /#*==)~1____~~~,=:_______(:__1~~~~~~~~~~!=    ",
"     =>''~,;___3>>>=}____________|~~~~~~~~~~,&    ",
"    &-~~~,=[___[<<<{________((((4)~~~~~~~~~~>{    ",
"    @=---==<:___________:{&**====*>'~~~~~~~~-$    ",
"        {##*=&[_____([<*=->!'=*&&&===-,!')'>=/    ",
"         /@@#*==***====>)~~~~-*####&-*==*==&]     ",
"          /@@@###&&##-=*>>>>-=-########+          ",
"           /@@@@@@@@@@@&*===*&########/           ",
"            /@@@@@@@@@@@@############/            ",
"             /@@@@@@@@@@@###########/             ",
"              /@@@@@@@@@@##########/              ",
"               /@@@@@@@@@#########/               ",
"                /@@@@@@@@########/                ",
"                 /@@@@@@@#######/                 ",
"                  /@@@@@@######/                  ",
"                   /@@@@@#####/                   ",
"                    /@@@@####/                    ",
"                     /@@@###/                     ",
"                      /@@##/                      ",
"                       /@#/                       ",
"                        //                        "};
