/* XPM */
static char * zoom_in_xpm[] = {
"24 25 4 1",
" 	c None",
".	c #000000",
"+	c #FFFFFF",
"@	c #9C999C",
"                        ",
"                        ",
"                        ",
"                ...     ",
"                .+.     ",
"                .+.     ",
"             ....+....  ",
"             .+++++++.  ",
"      ....   ....+....  ",
"     .@  @.     .+.     ",
"    .@    @.    .+.     ",
"    .      .    ...     ",
"    .      .            ",
"    .@    @.            ",
"     .@  @..            ",
"      .......           ",
"           ...          ",
"            ...         ",
"             ...        ",
"              ..        ",
"                        ",
"                        ",
"                        ",
"                        ",
"                        "};
