/* XPM */
static char * zoom_all_xpm[] = {
"24 25 6 1",
" 	c None",
".	c #FFFFFF",
"+	c #000000",
"@	c #E1E896",
"#	c #9C999C",
"$	c #FEFEFE",
"                        ",
"                        ",
"        ............    ",
"        ...+........    ",
"        ..+@+.......    ",
"        .+@@@+......    ",
"        ++++++++++++    ",
"        ......+@@@+.    ",
"      ++++.....+@+..    ",
"     +#..#+..$$.+...    ",
"    +# ...#+........    ",
"    +  ....+            ",
"    +      +            ",
"    +#    #+            ",
"     +#  #++            ",
"      +++++++           ",
"           +++          ",
"            +++         ",
"             +++        ",
"              ++        ",
"                        ",
"                        ",
"                        ",
"                        ",
"                        "};
